HIERARCHY
ROOT hips
{
	OFFSET -0.003675 0.299928 -0.021708
	CHANNELS 6 Xposition Yposition Zposition Xrotation Yrotation Zrotation
	JOINT LowerBack
	{
		OFFSET 0.000919 0.177588 0.009275
		CHANNELS 3 Xrotation Yrotation Zrotation
		JOINT spine
		{
			OFFSET 0.000919 0.177588 0.009275
			CHANNELS 3 Xrotation Yrotation Zrotation
			JOINT chest
			{
				OFFSET 0.000456 0.100015 0.004638
				CHANNELS 3 Xrotation Yrotation Zrotation
				JOINT neck
				{
					OFFSET 0.000456 0.100015 0.004638
					CHANNELS 3 Xrotation Yrotation Zrotation
					JOINT head
					{
						OFFSET 0.000924 0.155147 0.009274
						CHANNELS 6 Xposition Yposition Zposition Xrotation Yrotation Zrotation
						End Site
						{
							OFFSET 0.000000 0.153400 0.000000
						}
					}
				}
				JOINT shoulder.L
				{
					OFFSET 0.019937 0.078966 0.057518
					CHANNELS 6 Xposition Yposition Zposition Yrotation Xrotation Zrotation
					JOINT upper_arm.L
					{
						OFFSET 0.177024 -0.020465 -0.095062
						CHANNELS 6 Xposition Yposition Zposition Xrotation Yrotation Zrotation
						JOINT forearm.L
						{
							OFFSET 0.247100 -0.135500 -0.061800
							CHANNELS 3 Xrotation Yrotation Zrotation
							JOINT hand.L
							{
								OFFSET 0.217000 -0.143000 0.039300
								CHANNELS 3 Xrotation Yrotation Zrotation
								JOINT palm.01.L
								{
									OFFSET 0.021770 -0.038291 0.012954
									CHANNELS 6 Xposition Yposition Zposition Yrotation Xrotation Zrotation
									JOINT f_index.01.L
									{
										OFFSET 0.053215 -0.044137 0.008236
										CHANNELS 3 Xrotation Yrotation Zrotation
										JOINT f_index.02.L
										{
											OFFSET 0.036108 -0.024723 -0.010656
											CHANNELS 3 Xrotation Yrotation Zrotation
											JOINT f_index.03.L
											{
												OFFSET 0.021342 -0.014948 -0.010846
												CHANNELS 3 Xrotation Yrotation Zrotation
												End Site
												{
													OFFSET 0.015600 -0.009860 -0.013421
												}
											}
										}
									}
									JOINT thumb.01.L
									{
										OFFSET -0.009090 -0.002348 -0.024223
										CHANNELS 6 Xposition Yposition Zposition Xrotation Yrotation Zrotation
										JOINT thumb.02.L
										{
											OFFSET 0.019713 -0.035076 -0.011120
											CHANNELS 3 Xrotation Yrotation Zrotation
											JOINT thumb.03.L
											{
												OFFSET 0.024877 -0.021748 -0.005176
												CHANNELS 3 Xrotation Yrotation Zrotation
												End Site
												{
													OFFSET 0.016125 -0.013029 -0.001569
												}
											}
										}
									}
								}
								JOINT palm.02.L
								{
									OFFSET 0.032823 -0.025104 0.012281
									CHANNELS 6 Xposition Yposition Zposition Yrotation Xrotation Zrotation
									JOINT f_middle.01.L
									{
										OFFSET 0.055723 -0.038469 0.008037
										CHANNELS 3 Xrotation Yrotation Zrotation
										JOINT f_middle.02.L
										{
											OFFSET 0.038167 -0.027473 -0.015582
											CHANNELS 3 Xrotation Yrotation Zrotation
											JOINT f_middle.03.L
											{
												OFFSET 0.021707 -0.016587 -0.017037
												CHANNELS 3 Xrotation Yrotation Zrotation
												End Site
												{
													OFFSET 0.014112 -0.010584 -0.014294
												}
											}
										}
									}
								}
								JOINT palm.03.L
								{
									OFFSET 0.039230 -0.011402 0.008390
									CHANNELS 6 Xposition Yposition Zposition Yrotation Xrotation Zrotation
									JOINT f_ring.01.L
									{
										OFFSET 0.061796 -0.031470 0.007910
										CHANNELS 3 Xrotation Yrotation Zrotation
										JOINT f_ring.02.L
										{
											OFFSET 0.033092 -0.023401 -0.019127
											CHANNELS 3 Xrotation Yrotation Zrotation
											JOINT f_ring.03.L
											{
												OFFSET 0.021392 -0.015362 -0.017824
												CHANNELS 3 Xrotation Yrotation Zrotation
												End Site
												{
													OFFSET 0.008670 -0.007297 -0.014686
												}
											}
										}
									}
								}
								JOINT palm.04.L
								{
									OFFSET 0.043417 0.002450 0.002889
									CHANNELS 6 Xposition Yposition Zposition Yrotation Xrotation Zrotation
									JOINT f_pinky.01.L
									{
										OFFSET 0.069986 -0.026156 0.003627
										CHANNELS 3 Xrotation Yrotation Zrotation
										JOINT f_pinky.02.L
										{
											OFFSET 0.018520 -0.012813 -0.016429
											CHANNELS 3 Xrotation Yrotation Zrotation
											JOINT f_pinky.03.L
											{
												OFFSET 0.013822 -0.009796 -0.014947
												CHANNELS 3 Xrotation Yrotation Zrotation
												End Site
												{
													OFFSET 0.007238 -0.006103 -0.011657
												}
											}
										}
									}
								}
							}
						}
					}
				}
				JOINT shoulder.R
				{
					OFFSET -0.016662 0.078957 0.057696
					CHANNELS 6 Xposition Yposition Zposition Yrotation Xrotation Zrotation
					JOINT upper_arm.R
					{
						OFFSET -0.176972 -0.020537 -0.095144
						CHANNELS 6 Xposition Yposition Zposition Xrotation Yrotation Zrotation
						JOINT forearm.R
						{
							OFFSET -0.247100 -0.135500 -0.061800
							CHANNELS 3 Xrotation Yrotation Zrotation
							JOINT hand.R
							{
								OFFSET -0.217000 -0.143000 0.039300
								CHANNELS 3 Xrotation Yrotation Zrotation
								JOINT palm.01.R
								{
									OFFSET -0.021773 -0.038278 0.012988
									CHANNELS 6 Xposition Yposition Zposition Yrotation Xrotation Zrotation
									JOINT f_index.01.R
									{
										OFFSET -0.053212 -0.044139 0.008249
										CHANNELS 3 Xrotation Yrotation Zrotation
										JOINT f_index.02.R
										{
											OFFSET -0.036049 -0.024835 -0.010634
											CHANNELS 3 Xrotation Yrotation Zrotation
											JOINT f_index.03.R
											{
												OFFSET -0.021371 -0.014881 -0.010866
												CHANNELS 3 Xrotation Yrotation Zrotation
												End Site
												{
													OFFSET -0.015584 -0.009883 -0.013422
												}
											}
										}
									}
									JOINT thumb.01.R
									{
										OFFSET 0.009113 -0.002381 -0.024211
										CHANNELS 6 Xposition Yposition Zposition Xrotation Yrotation Zrotation
										JOINT thumb.02.R
										{
											OFFSET -0.019694 -0.035097 -0.011088
											CHANNELS 3 Xrotation Yrotation Zrotation
											JOINT thumb.03.R
											{
												OFFSET -0.024867 -0.021762 -0.005168
												CHANNELS 3 Xrotation Yrotation Zrotation
												End Site
												{
													OFFSET -0.016120 -0.013036 -0.001565
												}
											}
										}
									}
								}
								JOINT palm.02.R
								{
									OFFSET -0.032828 -0.025095 0.012286
									CHANNELS 6 Xposition Yposition Zposition Yrotation Xrotation Zrotation
									JOINT f_middle.01.R
									{
										OFFSET -0.055721 -0.038472 0.008040
										CHANNELS 3 Xrotation Yrotation Zrotation
										JOINT f_middle.02.R
										{
											OFFSET -0.038101 -0.027593 -0.015557
											CHANNELS 3 Xrotation Yrotation Zrotation
											JOINT f_middle.03.R
											{
												OFFSET -0.021730 -0.016530 -0.017054
												CHANNELS 3 Xrotation Yrotation Zrotation
												End Site
												{
													OFFSET -0.014096 -0.010608 -0.014293
												}
											}
										}
									}
								}
								JOINT palm.03.R
								{
									OFFSET -0.039192 -0.011488 0.008390
									CHANNELS 6 Xposition Yposition Zposition Yrotation Xrotation Zrotation
									JOINT f_ring.01.R
									{
										OFFSET -0.061839 -0.031387 0.007876
										CHANNELS 3 Xrotation Yrotation Zrotation
										JOINT f_ring.02.R
										{
											OFFSET -0.033068 -0.023437 -0.019125
											CHANNELS 3 Xrotation Yrotation Zrotation
											JOINT f_ring.03.R
											{
												OFFSET -0.021371 -0.015393 -0.017822
												CHANNELS 3 Xrotation Yrotation Zrotation
												End Site
												{
													OFFSET -0.008654 -0.007321 -0.014684
												}
											}
										}
									}
								}
								JOINT palm.04.R
								{
									OFFSET -0.043421 0.002443 0.002845
									CHANNELS 6 Xposition Yposition Zposition Yrotation Xrotation Zrotation
									JOINT f_pinky.01.R
									{
										OFFSET -0.069983 -0.026169 0.003599
										CHANNELS 3 Xrotation Yrotation Zrotation
										JOINT f_pinky.02.R
										{
											OFFSET -0.018501 -0.012842 -0.016428
											CHANNELS 3 Xrotation Yrotation Zrotation
											JOINT f_pinky.03.R
											{
												OFFSET -0.013806 -0.009821 -0.014946
												CHANNELS 3 Xrotation Yrotation Zrotation
												End Site
												{
													OFFSET -0.007226 -0.006121 -0.011655
												}
											}
										}
									}
								}
							}
						}
					}
				}
			}
		}
	}
	JOINT pelvis.L
	{
		OFFSET 0.000000 0.000000 0.000000
		CHANNELS 6 Xposition Yposition Zposition Xrotation Yrotation Zrotation
		JOINT thigh.L
		{
			OFFSET 0.101675 0.001054 -0.000000
			CHANNELS 3 Xrotation Yrotation Zrotation
			JOINT shin.L
			{
				OFFSET 0.000000 -0.534800 0.041000
				CHANNELS 3 Xrotation Yrotation Zrotation
				JOINT foot.L
				{
					OFFSET 0.000000 -0.452000 -0.044800
					CHANNELS 3 Xrotation Yrotation Zrotation
					JOINT toe.L
					{
						OFFSET -0.000000 -0.068500 0.109600
						CHANNELS 3 Xrotation Yrotation Zrotation
						End Site
						{
							OFFSET -0.000000 0.000000 0.067200
						}
					}
				}
				JOINT heel.L
				{
					OFFSET 0.000000 -0.452000 -0.044800
					CHANNELS 3 Xrotation Yrotation Zrotation
					JOINT heel.02.L
					{
						OFFSET -0.038000 -0.085200 0.016200
						CHANNELS 6 Xposition Yposition Zposition Xrotation Yrotation Zrotation
						End Site
						{
							OFFSET 0.080000 -0.000000 0.000000
						}
					}
				}
			}
		}
	}
	JOINT pelvis.R
	{
		OFFSET 0.000000 0.000000 0.000000
		CHANNELS 6 Xposition Yposition Zposition Xrotation Yrotation Zrotation
		JOINT thigh.R
		{
			OFFSET -0.094325 0.001054 0.000000
			CHANNELS 3 Xrotation Yrotation Zrotation
			JOINT shin.R
			{
				OFFSET 0.000000 -0.534800 0.041000
				CHANNELS 3 Xrotation Yrotation Zrotation
				JOINT foot.R
				{
					OFFSET 0.000000 -0.452000 -0.044800
					CHANNELS 3 Xrotation Yrotation Zrotation
					JOINT toe.R
					{
						OFFSET -0.000000 -0.068500 0.109600
						CHANNELS 3 Xrotation Yrotation Zrotation
						End Site
						{
							OFFSET -0.000000 0.000000 0.067200
						}
					}
				}
				JOINT heel.R
				{
					OFFSET 0.000000 -0.452000 -0.044800
					CHANNELS 3 Xrotation Yrotation Zrotation
					JOINT heel.02.R
					{
						OFFSET 0.038000 -0.085200 0.016200
						CHANNELS 6 Xposition Yposition Zposition Xrotation Yrotation Zrotation
						End Site
						{
							OFFSET -0.080000 0.000000 -0.000000
						}
					}
				}
			}
		}
	}
}
MOTION
Frames: 4
Frame Time: 0.041667
-0.009543 0.207866 -0.002828 -26.006227 9.366677 88.116510 0.000000 0.000001 -0.000000 -0.000000 -0.000002 0.000000 -0.000001 -0.000001 0.000000 -0.000000 -0.000001 0.000000 0.000924 0.155148 0.009274 7.414467 -0.027586 -19.242731 0.019937 0.078966 0.057518 0.898770 5.680749 53.996436 0.177024 -0.020465 -0.095062 -2.754010 -30.644651 23.966534 -0.395267 27.860166 39.152857 -0.000001 0.000001 -0.000006 0.021770 -0.038291 0.012954 -0.000001 0.000001 -0.000002 -0.000002 -0.000001 0.000001 0.000002 -0.000001 0.000005 -0.000000 0.000005 0.000000 -0.009090 -0.002348 -0.024224 -0.000003 0.000000 0.000001 -0.000001 0.000002 0.000005 -0.000001 0.000000 0.000003 0.032823 -0.025104 0.012281 -0.000002 0.000003 0.000004 -0.000000 0.000004 -0.000005 -0.000003 -0.000001 -0.000000 0.000001 0.000001 -0.000001 0.039230 -0.011402 0.008390 -0.000002 -0.000000 0.000004 -0.000001 0.000004 0.000001 -0.000002 0.000001 0.000003 -0.000001 -0.000002 0.000003 0.043417 0.002450 0.002889 -0.000002 0.000001 -0.000000 0.000001 -0.000004 -0.000002 -0.000002 0.000000 0.000001 0.000000 0.000000 -0.000000 -0.016662 0.078957 0.057696 -32.039366 10.387581 -44.301283 -0.176972 -0.020537 -0.095144 10.442087 4.507846 -43.097852 0.191970 -32.374192 -34.874686 0.000001 0.000001 0.000000 -0.021773 -0.038278 0.012988 0.000000 -0.000000 0.000002 -0.000003 0.000003 -0.000003 0.000001 0.000001 -0.000004 -0.000002 0.000003 0.000002 0.009113 -0.002381 -0.024211 -0.000000 -0.000002 -0.000006 -0.000000 0.000000 -0.000001 0.000001 -0.000001 -0.000001 -0.032828 -0.025095 0.012286 0.000001 0.000000 -0.000001 -0.000000 0.000001 -0.000003 -0.000000 -0.000002 -0.000000 -0.000002 0.000003 -0.000002 -0.039192 -0.011488 0.008390 0.000000 0.000002 0.000005 -0.000001 0.000003 -0.000005 0.000001 -0.000003 -0.000002 -0.000002 0.000001 -0.000001 -0.043421 0.002443 0.002845 -0.000001 0.000001 0.000002 -0.000004 0.000004 0.000003 -0.000001 -0.000004 0.000005 -0.000000 0.000003 0.000001 0.000000 0.000000 0.000000 -2.127089 -0.838053 8.318318 13.390956 0.594295 7.274363 28.297448 -1.550455 15.850070 0.000002 -0.000001 -0.000002 0.000000 -0.000001 -0.000001 0.000005 -0.000001 -0.000001 -0.038000 -0.085200 0.016200 0.000001 -0.000003 -0.000001 0.000000 0.000000 0.000000 -2.110458 -0.835450 9.552751 11.343540 0.522992 7.311846 35.404419 -0.249054 2.514223 0.000000 -0.000001 -0.000002 -0.000001 0.000001 0.000000 0.000005 -0.000001 -0.000002 0.038000 -0.085200 0.016200 -0.000002 0.000000 -0.000001 
-0.009800 0.208471 -0.003072 -30.474460 8.529878 89.304594 0.000000 0.000004 -0.000001 0.000001 0.000001 -0.000001 -0.000000 -0.000000 0.000000 0.000000 -0.000004 -0.000000 0.000924 0.155148 0.009274 8.839222 -0.022755 -14.472025 0.019937 0.078966 0.057518 -1.388331 5.705181 53.845899 0.177024 -0.020465 -0.095062 -10.457713 -31.893148 15.616997 1.903420 23.178010 32.998273 -0.000001 0.000002 0.000003 0.021770 -0.038291 0.012954 0.000000 0.000000 0.000001 -0.000003 -0.000003 0.000003 -0.000003 0.000001 0.000007 0.000001 0.000004 -0.000000 -0.009090 -0.002348 -0.024223 -0.000000 -0.000002 -0.000001 0.000001 -0.000002 0.000001 0.000001 0.000000 -0.000001 0.032823 -0.025104 0.012281 -0.000001 0.000001 0.000002 -0.000001 0.000003 -0.000002 -0.000003 0.000000 0.000001 0.000000 0.000001 0.000001 0.039230 -0.011402 0.008390 -0.000001 0.000001 0.000003 -0.000001 -0.000000 -0.000000 0.000000 0.000003 0.000001 0.000003 -0.000002 0.000003 0.043417 0.002449 0.002889 -0.000001 0.000001 -0.000002 -0.000001 -0.000004 -0.000002 -0.000002 0.000003 -0.000000 0.000000 -0.000002 -0.000001 -0.016662 0.078957 0.057696 -36.053003 11.717636 -44.324086 -0.176972 -0.020537 -0.095144 13.414229 1.594986 -49.944143 -2.772076 -34.429863 -40.641787 0.000001 0.000000 -0.000002 -0.021773 -0.038278 0.012988 -0.000000 -0.000001 0.000000 -0.000001 0.000001 -0.000001 -0.000001 -0.000000 -0.000003 -0.000001 0.000000 0.000003 0.009113 -0.002381 -0.024211 -0.000000 -0.000002 0.000001 0.000003 -0.000004 -0.000003 0.000001 -0.000001 -0.000001 -0.032828 -0.025095 0.012286 0.000000 -0.000000 -0.000005 0.000000 0.000001 0.000006 0.000001 -0.000003 -0.000004 -0.000000 -0.000001 -0.000004 -0.039192 -0.011488 0.008390 -0.000000 0.000001 0.000001 -0.000001 0.000002 -0.000002 -0.000000 -0.000002 -0.000000 -0.000001 -0.000003 -0.000002 -0.043421 0.002443 0.002845 -0.000000 -0.000001 0.000000 -0.000002 0.000004 0.000004 -0.000003 -0.000001 0.000000 0.000000 0.000001 0.000002 0.000000 0.000000 -0.000000 -2.097959 -0.843380 8.427146 12.972060 0.673722 8.350350 24.177403 -1.666348 17.070236 0.000000 0.000000 -0.000000 0.000003 0.000002 -0.000001 0.000002 0.000001 0.000003 -0.038000 -0.085200 0.016200 0.000001 -0.000001 0.000002 0.000000 0.000000 -0.000000 -2.081909 -0.840826 9.661571 9.629214 0.482597 6.651251 38.404829 -0.677108 6.848794 -0.000005 -0.000001 -0.000002 -0.000002 0.000004 0.000000 0.000002 0.000002 -0.000002 0.038000 -0.085200 0.016200 -0.000001 0.000000 -0.000000 
-0.010193 0.208430 -0.002935 -32.199762 7.244335 91.016314 -0.000000 0.000001 -0.000000 0.000001 0.000004 -0.000001 0.000001 0.000001 -0.000000 0.000000 0.000001 -0.000000 0.000924 0.155148 0.009274 10.273854 -0.019985 -9.835113 0.019937 0.078966 0.057518 -6.694006 5.850536 55.329761 0.177024 -0.020465 -0.095062 -15.597128 -26.892391 8.242307 2.838966 17.369434 28.699137 -0.000000 0.000001 -0.000004 0.021770 -0.038291 0.012954 0.000002 0.000001 -0.000006 -0.000001 -0.000003 -0.000000 0.000001 -0.000000 0.000003 -0.000000 0.000005 -0.000002 -0.009090 -0.002348 -0.024224 -0.000001 -0.000002 -0.000004 -0.000000 0.000000 -0.000000 0.000001 0.000000 -0.000002 0.032823 -0.025104 0.012281 0.000001 -0.000001 0.000002 0.000001 0.000001 -0.000003 -0.000003 -0.000004 0.000005 -0.000000 0.000000 -0.000003 0.039230 -0.011402 0.008390 0.000002 -0.000000 0.000006 0.000000 0.000002 -0.000000 0.000002 0.000003 0.000001 -0.000001 0.000003 0.000001 0.043417 0.002450 0.002889 0.000000 -0.000002 -0.000003 -0.000003 -0.000008 0.000002 -0.000002 -0.000003 -0.000004 -0.000002 0.000006 -0.000004 -0.016662 0.078956 0.057696 -39.497167 12.751395 -42.300086 -0.176972 -0.020537 -0.095144 17.110355 1.386109 -56.387887 -5.725443 -36.151546 -46.050949 -0.000002 0.000001 0.000000 -0.021773 -0.038278 0.012988 0.000001 -0.000001 -0.000003 -0.000000 0.000001 -0.000001 -0.000002 -0.000001 -0.000008 0.000001 -0.000000 -0.000003 0.009113 -0.002381 -0.024212 -0.000001 -0.000003 -0.000003 -0.000001 -0.000000 0.000005 -0.000001 0.000002 -0.000003 -0.032828 -0.025095 0.012286 0.000001 -0.000001 -0.000001 0.000001 0.000000 0.000001 0.000000 0.000002 -0.000002 -0.000001 0.000007 -0.000002 -0.039192 -0.011488 0.008390 -0.000000 -0.000000 -0.000002 0.000000 0.000002 -0.000005 0.000004 0.000003 -0.000007 0.000000 0.000005 0.000002 -0.043421 0.002443 0.002845 -0.000000 -0.000000 0.000002 -0.000004 0.000004 -0.000001 0.000001 -0.000007 0.000002 -0.000002 0.000005 -0.000001 0.000000 0.000000 -0.000000 -2.089424 -0.749225 7.406092 12.934917 0.770498 9.629009 23.548375 -1.614916 16.527779 -0.000005 0.000002 -0.000001 0.000002 -0.000002 0.000001 0.000003 0.000002 0.000000 -0.038000 -0.085200 0.016200 0.000001 -0.000005 -0.000001 0.000000 0.000000 -0.000000 -2.070318 -0.746527 8.640535 11.097568 0.559143 7.766518 37.700824 -0.782301 7.919257 0.000000 0.000001 0.000002 -0.000002 -0.000002 -0.000001 0.000002 -0.000001 0.000001 0.038000 -0.085200 0.016200 0.000000 0.000002 0.000001 
-0.021411 0.208987 -0.020134 -16.068163 -12.573842 70.406123 -0.000002 -0.000001 0.000003 -0.000001 -0.000000 0.000000 0.000001 -0.000001 -0.000002 0.000001 -0.000001 -0.000002 0.000924 0.155147 0.009274 5.151593 -0.005933 1.868859 0.019937 0.078966 0.057518 7.430089 0.692194 29.913312 0.177025 -0.020465 -0.095062 -19.570524 6.836943 -36.776464 -1.120624 -2.408217 3.131602 -0.000002 -0.000001 -0.000002 0.021770 -0.038291 0.012954 0.000003 -0.000003 -0.000004 -0.000001 -0.000004 0.000003 -0.000000 -0.000001 0.000005 -0.000003 0.000003 -0.000003 -0.009090 -0.002348 -0.024223 0.000004 -0.000004 0.000002 -0.000003 0.000004 0.000001 -0.000000 -0.000003 -0.000001 0.032823 -0.025104 0.012281 0.000002 -0.000002 0.000005 0.000005 0.000003 -0.000003 -0.000005 0.000002 0.000004 -0.000001 -0.000000 0.000005 0.039230 -0.011402 0.008390 -0.000000 -0.000001 0.000004 0.000004 0.000000 -0.000002 0.000001 0.000003 -0.000001 0.000001 0.000002 -0.000000 0.043417 0.002450 0.002889 0.000001 -0.000002 -0.000002 -0.000001 -0.000002 -0.000002 0.000004 0.000002 -0.000001 -0.000005 -0.000005 0.000004 -0.016662 0.078956 0.057696 0.788915 1.985842 -38.967824 -0.176972 -0.020537 -0.095144 -41.872444 -0.922781 39.561163 -30.446501 9.896005 47.004918 -0.000002 -0.000000 0.000002 -0.021773 -0.038278 0.012988 0.000000 -0.000002 -0.000002 -0.000000 0.000003 0.000002 0.000002 0.000001 -0.000003 -0.000002 0.000002 -0.000001 0.009113 -0.002381 -0.024211 0.000002 -0.000000 0.000008 -0.000006 0.000000 -0.000003 0.000002 0.000002 -0.000008 -0.032828 -0.025095 0.012286 0.000000 -0.000001 -0.000001 -0.000000 0.000000 0.000001 0.000001 -0.000002 -0.000003 -0.000006 0.000006 -0.000003 -0.039192 -0.011488 0.008390 0.000000 -0.000000 -0.000000 0.000000 0.000003 -0.000002 -0.000001 0.000001 -0.000003 0.000004 0.000004 -0.000001 -0.043421 0.002443 0.002845 0.000000 -0.000001 -0.000001 -0.000004 0.000005 -0.000001 -0.000004 -0.000000 -0.000000 -0.000001 0.000000 -0.000002 -0.000000 0.000000 -0.000000 -2.340844 -0.557717 5.006211 -3.041161 0.388891 5.593969 20.707814 -1.940044 19.985753 -0.000003 0.000001 -0.000000 -0.000000 -0.000001 -0.000001 0.000000 -0.000000 -0.000000 -0.038000 -0.085200 0.016200 -0.000000 0.000000 -0.000001 0.000000 0.000000 -0.000000 -2.311133 -0.554804 6.240682 -32.021231 0.268957 0.864553 23.299677 -0.287426 2.901628 0.000000 -0.000002 -0.000001 0.000001 0.000002 -0.000001 0.000002 0.000000 0.000000 0.038000 -0.085200 0.016200 0.000000 -0.000002 0.000001 
